<svg xmlns="http://www.w3.org/2000/svg" viewBox="0 0 100 100">
  <defs>
    <linearGradient id="fireGradient" x1="0%" y1="0%" x2="0%" y2="100%">
      <stop offset="0%" style="stop-color:#ff6b35;stop-opacity:1" />
      <stop offset="50%" style="stop-color:#f7931e;stop-opacity:1" />
      <stop offset="100%" style="stop-color:#c1440e;stop-opacity:1" />
    </linearGradient>
  </defs>
  
  <!-- Background circle -->
  <circle cx="50" cy="50" r="48" fill="#2d1810"/>
  
  <!-- Wood logs -->
  <rect x="20" y="55" width="60" height="12" rx="2" fill="#8B4513"/>
  <rect x="25" y="42" width="50" height="12" rx="2" fill="#A0522D"/>
  <rect x="30" y="29" width="40" height="12" rx="2" fill="#CD853F"/>
  
  <!-- Wood grain details -->
  <line x1="25" y1="61" x2="75" y2="61" stroke="#6B3410" stroke-width="1" opacity="0.5"/>
  <line x1="30" y1="48" x2="70" y2="48" stroke="#7D3C1C" stroke-width="1" opacity="0.5"/>
  <line x1="35" y1="35" x2="65" y2="35" stroke="#9B6B47" stroke-width="1" opacity="0.5"/>
  
  <!-- Flame -->
  <path d="M 50 15 Q 45 20, 45 25 Q 45 30, 50 32 Q 55 30, 55 25 Q 55 20, 50 15 Z" fill="url(#fireGradient)"/>
  <path d="M 50 18 Q 48 21, 48 24 Q 48 27, 50 28 Q 52 27, 52 24 Q 52 21, 50 18 Z" fill="#FFA500" opacity="0.8"/>
  <ellipse cx="50" cy="27" rx="2" ry="2.5" fill="#FFFF00" opacity="0.9"/>
</svg>
